<svg width="256" height="256" viewBox="0 0 256 256" fill="none" xmlns="http://www.w3.org/2000/svg">
  <rect width="256" height="256" rx="48" fill="#1B120C"/>
  <path d="M64 84C64 75.1634 71.1634 68 80 68H192V84H64Z" fill="#F4C77A"/>
  <path d="M72 92H184V128C184 154.51 162.51 176 136 176H120C93.4903 176 72 154.51 72 128V92Z" fill="#F8E7CC"/>
  <path d="M168 104H192C205.255 104 216 114.745 216 128C216 141.255 205.255 152 192 152H168V136H192C196.418 136 200 132.418 200 128C200 123.582 196.418 120 192 120H168V104Z" fill="#D19A45"/>
  <path d="M100 56C100 46.0589 108.059 38 118 38V38C118 47.9411 109.941 56 100 56V56Z" fill="#F4C77A"/>
  <path d="M126 56C126 46.0589 134.059 38 144 38V38C144 47.9411 135.941 56 126 56V56Z" fill="#F4C77A"/>
  <path d="M150 56C150 46.0589 158.059 38 168 38V38C168 47.9411 159.941 56 150 56V56Z" fill="#F4C77A"/>
  <rect x="96" y="188" width="64" height="10" rx="5" fill="#A56C32"/>
</svg>
